<svg  aria-hidden="true" focusable="false" role="img" viewBox="1 2.27 12 9.46" xmlns="http://www.w3.org/2000/svg">
<path d="m6.5547 11.542c-0.44569-0.5233-1.1896-1.083-1.9102-1.4371-0.72752-0.3576-1.4186-0.5562-2.2031-0.633-0.15469-0.015-0.28294-0.029-0.28499-0.031-2e-3 0 2e-3 -1.6151 0.01-3.5846l0.0132-3.5808 0.14284 0.014c0.87708 0.087 1.856 0.4184 2.5967 0.8803 0.63833 0.398 1.2975 1.0126 1.7177 1.6015l0.10576 0.1482v3.4014c0 1.8707-8e-3 3.401-0.0176 3.4007-0.01-3e-4 -0.0861-0.081-0.16992-0.1794zm0.72656-3.2297v-3.4156l0.20424-0.2729c0.26077-0.3484 0.78529-0.8733 1.1321-1.1328 0.92714-0.6939 1.9329-1.086 3.0875-1.204l0.14648-0.015v3.5858 3.5859l-0.16992 0.016c-1.6077 0.1496-3.0015 0.8129-4.0917 1.9471l-0.30868 0.3212v-3.4156zm0.9961 3.1835c0.63101-0.592 1.4664-1.0624 2.3055-1.2985 0.4391-0.1235 1.0101-0.2097 1.3892-0.2097 0.19874 0 0.30898-0.043 0.37116-0.1451 0.0468-0.077 0.0473-0.1101 0.0474-3.0157l8e-5 -2.9382 0.0879 0.016c0.0483 0.01 0.18544 0.048 0.30468 0.086l0.2168 0.069v3.6669c0 2.0168-8e-3 3.6669-0.0179 3.6669-0.01 0-0.15489-0.031-0.32227-0.069-0.66143-0.149-1.2061-0.2002-1.9215-0.1809-0.86772 0.024-1.5421 0.145-2.3438 0.422l-0.30469 0.1053 0.1875-0.1759zm-2.6719 0.057c-0.33292-0.1192-0.88274-0.2597-1.2539-0.3203-0.50468-0.082-0.85286-0.1038-1.4714-0.09-0.61458 0.013-0.98632 0.056-1.4934 0.1711-0.1418 0.032-0.28682 0.065-0.32227 0.072l-0.0644 0.014 1.1e-4 -3.6767 1.2e-4 -3.6768 0.27529-0.08c0.1514-0.044 0.28847-0.085 0.30458-0.09 0.0233-0.01 0.0293 0.589 0.0293 2.9349 0 3.2057-7e-3 3.027 0.12978 3.1169 0.0476 0.031 0.1465 0.045 0.42893 0.062 1.1225 0.064 2.1875 0.4409 3.057 1.0822 0.1875 0.1383 0.63749 0.5181 0.66328 0.5598 0.018 0.029 6e-3 0.026-0.28292-0.078z"/>
</svg>
