<svg  version="1.0" viewBox="0 0 1300 1800" xmlns="http://www.w3.org/2000/svg" class="svg-style book-cover">
<g transform="translate(0 1800) scale(.1 -.1)">
<path d="m0 9e3v-9e3h6500 6500v9e3 9e3h-6500-6500v-9e3zm3235 5739c580-77 1230-307 1730-613 453-277 969-758 1280-1191l65-90-1-2445c0-1345-4-2465-7-2490l-7-44-116 129c-687 766-1680 1309-2698 1475-69 11-211 29-315 41-105 11-194 24-197 27-3 4-3 914 2 2022 4 1108 8 2284 8 2613l1 598 53-6c28-4 120-15 202-26zm6815-2588v-2619l-117-12c-794-80-1457-297-2080-680-330-203-579-405-905-734l-238-239v2495 2495l101 134c306 404 682 767 1064 1025 468 317 996 544 1529 659 176 37 508 88 614 93l32 2v-2619zm-7497 1352c4-54 9-971 12-2038 4-1067 10-1997 15-2067 17-231 27-238 360-263 225-17 326-28 499-56 610-98 1218-346 1709-698 193-138 554-442 541-455-3-4-75 18-160 47-373 130-771 227-1139 276-259 35-461 44-840 38-434-7-635-24-926-77-95-18-449-95-486-106-17-5-18 127-18 2683v2688l208 62c114 34 210 62 213 62 3 1 9-43 12-96zm8072 42c61-17 145-42 188-55l77-24-1-2201c-1-2163-8-3137-21-3150-3-4-102 14-220 38-498 106-774 137-1218 137-720 0-1234-84-1904-309-115-39-211-69-213-68-5 6 247 230 366 325 64 51 179 136 256 187 649 435 1347 666 2125 705 197 10 238 17 291 53 62 42 72 73 80 246 4 86 8 1057 8 2159l1 2003 38-7c20-4 87-21 147-39zm1056-7955c18-10 19-26 19-498 0-366-3-491-12-500-12-12-104-17-132-6-11 4-16 19-16 46v40l-41-36c-58-50-105-69-176-74-113-8-192 38-242 140-75 153-59 392 35 515 36 47 104 83 168 90 75 8 117-2 176-42l50-34v174c0 155 2 175 18 184 22 14 128 14 153 1zm-9826-54c60-16 92-31 123-59 18-17 22-31 22-78 0-97-13-107-79-63-45 29-120 54-165 54-94 0-181-63-217-158-30-79-37-225-15-312 33-132 108-195 232-195 62 0 80 5 147 39 41 21 80 35 85 32 16-10 23-85 12-127-10-35-18-44-63-65-76-35-150-47-247-41-112 6-185 35-255 99-60 55-105 137-124 226-16 75-13 246 4 321 29 122 105 231 200 286 87 51 236 69 340 41zm3690-24c23-15 62-80 172-288 78-148 152-290 165-316l23-47-4 318c-4 369-8 351 89 351 99 0 90 47 90-461 0-530 10-489-117-489-58 0-86 5-108 19-30 18-137 205-312 549l-73 143v-343c0-254-3-347-12-356-16-16-129-15-151 1-16 11-17 46-15 460 3 526-10 477 132 477 71 0 98-4 121-18zm2953 6c16-16 16-120 0-136-8-8-60-12-170-12h-158v-125-125h154c173 0 166 4 166-80s7-80-166-80h-154v-180c0-207 4-200-100-200-110 0-100-44-100 463 0 384 2 445 16 465 15 22 18 22 258 22 175 0 245-3 254-12zm-1200-60c7-7 12-43 12-90v-77l83-3 82-3v-70-70l-83-3-84-3 4-190c3-189 3-191 28-211 19-15 33-18 60-14 80 14 75 18 78-56 3-63 1-68-24-85-34-22-148-30-198-13-20 6-51 23-68 38-56 47-62 75-66 314l-4 217-46 3-47 3v70 70l48 3 47 3v79c0 65 3 81 18 89 24 15 145 14 160-1zm-4718-164c99-29 159-85 196-184 27-71 25-267-4-341-30-76-90-142-160-176-52-25-67-28-172-28-141 0-196 20-265 97-61 68-80 132-79 268 1 196 77 317 230 363 65 21 187 21 254 1zm1477 1c115-34 183-136 191-286 6-124 17-119-239-119h-209v-38c0-50 29-102 71-127 48-29 171-26 257 4 34 13 69 20 77 17 21-8 20-109-1-130-32-32-123-51-249-51-104 0-127 4-173 24-135 61-203 225-173 418 24 155 102 254 231 294 43 13 164 10 217-6zm763-5c22-22 28-99 10-145-9-24-14-26-38-19-72 21-108 6-163-70l-29-39v-207c0-147-3-209-12-218-16-16-150-16-166 0-17 17-17 669 0 686 12 12 104 17 132 6 11-4 16-19 16-52v-46l37 43c51 60 89 81 146 81 34 0 53-6 67-20zm1910 4c99-29 159-85 196-184 27-71 25-267-4-341-30-76-90-142-160-176-52-25-67-28-172-28-141 0-196 20-265 97-61 68-80 132-79 268 1 196 77 317 230 363 65 21 187 21 254 1zm2360 0c99-29 159-85 196-184 27-71 25-267-4-341-30-76-90-142-160-176-52-25-67-28-172-28-141 0-196 20-265 97-61 68-80 132-79 268 1 196 77 317 230 363 65 21 187 21 254 1zm1658 0c47-19 88-58 115-109 21-38 22-56 25-314 3-218 1-276-10-282-7-5-43-9-80-9-102 0-98-9-98 259 0 221-1 229-23 262-34 51-82 60-140 26-88-52-87-49-87-301 0-159-3-225-12-234-16-16-150-16-166 0-17 17-17 669 0 686 12 12 104 17 132 6 11-4 16-19 16-51v-46l46 42c25 24 64 51 87 62 52 23 144 25 195 3zm-7700-16c5-7 43-116 82-243 40-126 75-236 79-242 4-7 40 96 80 230 41 133 81 248 89 255 16 12 128 17 156 6 9-3 16-16 16-28 0-37-211-650-228-663-10-9-50-13-113-13-78 0-101 3-117 18-13 11-56 125-127 340-85 258-104 326-95 338 16 18 163 20 178 2zm6575 0c14-11 17-43 19-255 3-240 3-242 27-267 29-31 80-42 112-26 13 7 43 31 67 53l42 41v221c0 159 3 224 12 233 7 7 41 12 83 12s76-5 83-12c17-17 17-669 0-686-12-12-104-17-132-6-11 4-16 19-16 45 0 21-3 39-6 39-4 0-25-16-46-36-58-52-112-74-184-74-90 0-156 37-198 110l-31 55-3 274c-3 218-1 276 10 282 20 13 142 10 161-3z"/>
<path d="m11299 5127c-45-30-68-92-68-187-1-90 11-139 45-179 49-58 118-50 192 22l42 41v110c0 101-2 112-25 142-26 34-97 74-132 74-11 0-35-10-54-23z"/>
<path d="m2384 5146c-69-30-98-103-92-235 5-113 25-157 86-183 83-37 157-10 200 73 21 39 23 55 20 149-3 88-7 111-26 141-37 60-121 84-188 55z"/>
<path d="m3873 5160c-41-25-63-59-70-110l-6-40h138 138l-7 41c-10 61-33 99-71 115-47 19-84 18-122-6z"/>
<path d="m6534 5146c-69-30-98-103-92-235 5-113 25-157 86-183 83-37 157-10 200 73 21 39 23 55 20 149-3 88-7 111-26 141-37 60-121 84-188 55z"/>
<path d="m8894 5146c-69-30-98-103-92-235 5-113 25-157 86-183 83-37 157-10 200 73 21 39 23 55 20 149-3 88-7 111-26 141-37 60-121 84-188 55z"/>
</g>
</svg>