
<svg viewBox="0 12.09 75.29 51.12" xml:space="preserve" xmlns="http://www.w3.org/2000/svg">

	<path d="m66.097 12.089h-56.9c-5.071 0-9.197 4.126-9.197 9.197v32.722c0 5.071 4.126 9.197 9.197 9.197h56.9c5.071 0 9.197-4.126 9.197-9.197v-32.721c1e-3 -5.072-4.125-9.198-9.197-9.198zm-4.494 6-23.956 15.434-23.956-15.434h47.912zm4.494 39.117h-56.9c-1.763 0-3.197-1.435-3.197-3.197v-32.552l29.796 19.16c0.04 0.025 0.083 0.042 0.124 0.065 0.043 0.024 0.087 0.047 0.131 0.069 0.231 0.119 0.469 0.215 0.712 0.278 0.025 7e-3 0.05 0.01 0.075 0.016 0.267 0.063 0.537 0.102 0.807 0.102h2e-3 4e-3c0.27 0 0.54-0.038 0.807-0.102 0.025-6e-3 0.05-9e-3 0.075-0.016 0.243-0.063 0.48-0.159 0.712-0.278 0.044-0.022 0.088-0.045 0.131-0.069 0.041-0.023 0.084-0.04 0.124-0.065l29.796-19.16v32.551c-1e-3 1.763-1.436 3.198-3.199 3.198z"/>

</svg>
