
<svg width="1436pt" height="649pt" version="1.0" viewBox="0 0 1436 649" xmlns="http://www.w3.org/2000/svg">
<g transform="translate(0 649) scale(.1 -.1)">
<path d="m7125 6480c-389-23-905-132-1299-275-391-142-807-358-1130-588-315-224-640-550-873-877-112-157-277-449-337-593-8-20-22-40-31-43-8-3-216 44-462 105-780 193-943 225-943 187 0-12 72-129 282-455 114-178 149-243 136-258-6-7-14-13-19-13-4 0-51 36-104 80-321 267-886 662-1060 740-95 44-164 54-340 54-325-1-612-83-763-219-95-85-182-225-182-292 0-54 36-110 206-323 297-372 584-685 910-992 262-246 364-335 587-513 266-213 351-271 430-295 37-12 118-41 180-66 138-57 446-164 469-164 22 0 33-19 20-32s-115 7-276 53c-93 27-128 27-112 1 9-15 191-133 398-258 309-187 1165-601 1278-619 25-4 81-26 125-50 102-54 216-97 485-184 258-83 316-100 389-112 31-5 200-12 376-15s326-7 333-10c10-3 10-9 2-24-10-18-22-20-163-22-132-3-152-5-155-20-3-17 44-30 298-82 294-60 735-120 1110-152 377-32 1087-29 1470 6 155 15 467 50 530 60 30 5 100 14 155 20s107 13 115 16c74 29 448 36 715 14 198-16 821-60 1130-80 88-5 210-14 270-20 61-6 225-19 365-31 140-11 372-34 515-50s323-36 400-44c77-9 188-22 247-31 201-29 235-8 116 71-118 77-246 174-252 191-10 26-8 31 43 89 27 30 78 106 115 168 81 136 128 201 160 222 15 10 72 21 153 30 138 14 213 31 317 70 143 54 259 123 361 217 73 66 125 146 161 245 31 88 42 103 100 144 65 45 110 113 124 189 15 83 15 237 0 320-10 58-10 65 6 77 10 7 43 13 74 13 59 0 80 11 80 44 0 20-90 233-116 273-25 40-18 78 21 107 19 15 35 34 35 42s-26 67-59 132c-32 64-100 229-152 365l-93 249 13 56c79 364 142 705 160 872 36 337 17 749-49 1029-42 180-124 395-154 407-10 4-50-26-117-85-146-131-251-197-544-341-270-133-344-180-520-334l-74-65-113 40c-393 139-788 211-1287 235l-144 7-126 102c-289 233-531 398-833 566-790 441-1525 668-2323 719-179 11-561 11-760 0zm600-200c597-31 1191-168 1733-400 223-95 511-236 692-337 176-99 720-447 720-461 0-4-26-8-57-8-98-1-319-80-426-152l-43-29-65 55c-35 30-107 86-159 126-87 65-136 96-359 226-99 57-147 108-199 207-30 58-47 81-57 77-19-8-113-193-168-334-139-356-194-660-243-1350-14-198-15-262-5-407 9-133 9-178 0-195-7-13-47-60-91-105-43-46-106-124-139-175-77-117-159-282-159-321 0-32 3-32 77-9l32 10-23-61c-52-138-70-242-71-402 0-120 5-173 24-265 13-63 27-119 31-125 4-5 11-20 14-32 11-35-9-28-67 21-59 49-284 212-367 264-30 19-65 45-76 56l-21 21 24 80c53 177 74 311 80 505 6 207-5 336-42 497-78 332-265 646-517 869-139 124-294 231-435 303-203 102-484 174-728 187-103 6-300-8-313-21-12-12 21-23 87-30 277-29 574-127 846-278 254-141 502-379 636-608 202-346 259-829 156-1311-14-66-24-79-40-57-31 42-127 77-127 46 0-6 24-44 53-83 30-39 57-81 60-93 4-15-7-46-32-92-44-80-36-82-134 36-104 126-573 563-692 645-22 15-146 80-275 145-129 64-296 151-371 191-248 136-595 280-889 369-85 25-314 87-508 136-194 48-403 104-463 124-60 19-111 35-114 35-24 0 23-60 198-252 207-228 386-431 607-688 68-80 183-210 255-290s157-176 189-215c32-38 81-94 109-123 45-47 49-54 35-68s-20-10-65 38c-540 578-822 857-1279 1259-409 360-606 504-762 554-69 22-78 40-52 104 65 166 227 439 383 646 361 478 897 889 1517 1165 434 193 961 325 1480 370 238 20 358 22 595 10zm6168-1047c68-215 92-450 84-798-6-239-24-448-53-620-25-149-104-496-120-526-19-38-29-42-63-24-68 35-67 13 3-89 75-107 162-288 239-496 78-211 100-281 89-292-4-4-45 24-91 62-100 85-155 96-102 21 53-74 141-291 141-347 0-14-7-27-16-31-16-6-94 26-94 40 0 10-61 47-77 47-21 0-16-11 41-99 61-94 103-196 112-276 5-40 1-71-15-124-12-39-25-71-30-71s-11 22-13 49c-5 53-56 167-73 164-5-1-14-42-18-90-26-289-62-383-207-536-101-106-192-170-305-212-83-32-212-61-311-70l-71-7-27 55c-38 79-139 163-218 182-40 10-35-9 13-47 42-33 139-168 139-193 0-8-24-20-57-29-81-23-145-49-147-61 0-6 33-12 74-15 60-4 75-8 78-22 5-27-72-181-114-228-122-136-356-204-587-171-99 14-147 39-218 113-55 59-58 60-112 62l-55 1-68-71c-113-117-200-147-429-147-146-1-218 14-319 65-118 59-198 128-260 223-34 52-66 129-66 157 0 24 21 28 136 28 64 0 104 4 104 10 0 14-28 23-132 45-48 9-95 23-105 30-15 11-14 17 16 64 45 69 101 115 193 159 43 20 78 41 78 46 0 19-127 0-183-28-100-48-217-173-217-231 0-22-37-19-143 11-126 36-220 74-340 139-56 30-147 70-202 90-194 70-277 133-398 303-135 188-181 292-231 524-4 16-12 28-20 28-14 0-19-11-56-113-27-72-43-65-35 16 22 217 48 366 80 450 20 50 19 77-2 77-25 0-104-87-138-152-17-32-34-58-39-58-14 0 0 178 20 255 10 39 46 126 81 194s63 130 63 137c0 10-15 14-47 15-27 1-61 4-78 8-30 7-30 7 110 146 77 77 169 165 205 196l64 55-24 120c-24 113-25 137-25 454 1 542 53 940 156 1200 44 109 73 150 107 150 76 0 229-69 401-180 246-160 434-362 605-652 60-103 73-118 96-118 14 0 36 7 49 16 19 14 22 23 18 51-9 53-120 271-183 359-30 42-52 80-47 84 11 10 208 65 304 84 146 30 276 40 499 40 495-1 859-77 1282-270 68-31 133-58 145-61 25-6 38 8 95 95 56 87 184 220 287 298 55 42 141 92 241 140 85 42 193 94 239 117 87 43 209 125 223 152 5 8 17 15 26 15 13 0 24-22 45-87zm-11513-2369c124-75 1131-574 1335-661 959-409 1802-676 2910-922 600-133 1542-269 2160-311 77-5 165-12 195-15 127-12 442-24 490-18 54 6 77 28 47 45-10 5-17 18-17 29 0 17 5 19 33 14 17-3 76-12 129-20 56-9 150-34 225-61 70-25 188-65 261-90 141-46 252-99 309-149 36-32 134-185 126-197-6-11-131-10-227 2-45 5-209 21-366 36-312 29-677 68-774 84-33 5-85 10-114 10-95 0-680 76-1052 136-912 147-1997 428-2860 740-165 60-214 78-420 159-47 18-137 53-200 78-150 58-447 185-580 247-58 27-161 74-230 104-171 74-721 345-823 405-45 27-160 92-256 146-96 53-202 114-236 136-34 21-65 39-69 39-13 0-96 61-96 70 0 19 25 9 100-36zm5825-990c22-36 61-100 87-142 45-74 60-133 39-147-6-3-28 18-49 47-22 29-59 73-83 98-70 73-99 112-99 132 0 22 39 78 54 78 6 0 29-30 51-66zm3604-1480c43-56 81-85 144-109 27-9 45-21 40-25-6-5-330 31-351 39-1 1 22 25 52 54 29 28 56 60 59 70 9 26 19 21 56-29z"/>
<path d="m8115 3858c148-269 235-482 269-655 48-247 62-427 46-591-9-99-50-345-65-398-3-11 4 0 15 24 25 55 64 199 86 322 21 113 23 379 5 510-28 199-112 466-193 609-77 137-186 281-211 281-5 0 17-46 48-102z"/>
<path d="m13688 4979c-269-206-469-475-562-753-37-111-71-285-63-318 8-31 7-30 242-174 264-162 340-192 371-149 20 26 100 276 123 380 43 197 55 329 55 600 0 308-21 485-59 485-7 0-55-32-107-71z"/>
<path d="m9592 4948c-5-7-19-67-31-133-71-409-80-904-21-1230 18-104 33-145 51-145 19 0 109 51 235 133 109 71 262 162 482 284 39 22 42 27 42 66 0 93-66 313-140 474-118 253-259 400-504 528-72 37-98 42-114 23z"/>
<path d="m10657 2533c-14-13-6-20 36-32 65-20 205-95 281-153 128-96 240-268 280-428 9-36 21-105 27-155 18-145 37-141 65 13 49 272-72 536-311 676-107 62-186 86-289 86-46 0-86-3-89-7z"/>
<path d="m12732 2506c-289-94-478-355-458-632 9-123 58-266 86-249 4 2 10 60 13 127 8 185 39 282 133 414 89 126 262 257 405 307 84 30 95 37 78 48-29 18-181 9-257-15z"/>
<path d="m10034 2029c-15-25 158-170 273-228 136-68 296-79 492-35 151 35 222 36 279 7 81-43 85-18 9 54-89 85-165 104-482 123-218 13-358 33-471 66-98 28-91 27-100 13z"/>
<path d="m13399 2010c-39-23-196-51-364-65-355-31-442-51-523-120-34-28-66-79-60-96 2-5 20 3 40 17 54 38 111 41 243 11 155-36 225-41 322-23 126 22 222 73 316 166 48 48 77 86 77 99 0 23-23 28-51 11z"/>
<path d="m12160 1218c0-18-8-66-17-106l-18-73-50 8c-74 12-577 3-633-11-45-12-47-14-50-50-7-82 49-156 137-182 55-16 99-52 156-129 19-26 26-27 100-29l79-1 20 38c26 49 79 92 132 106 63 17 107 51 134 106 23 46 25 64 28 203 3 105 0 152-7 152-6 0-11-15-11-32zm-288-253c118 0 140-3 155-18 26-25 9-46-73-87-39-19-90-52-115-72-58-48-85-48-130-2-41 43-115 83-173 92-38 7-41 10-44 44-4 50 24 60 148 51 52-4 157-7 232-8z"/>
</g>
</svg>
